<svg xmlns="http://www.w3.org/2000/svg" shape-rendering="geometricPrecision" text-rendering="geometricPrecision" image-rendering="optimizeQuality" fill-rule="evenodd" clip-rule="evenodd" viewBox="0 0 440 512.247"><path fill="#0E1C2A" fill-rule="nonzero" d="M42.241 13.04h355.518l.544.003.542.01.541.018.539.024h.001l.537.031.536.037.533.045h.001c.356.032.708.068 1.062.108l.528.065h.001a40.4 40.4 0 011.571.231h.001c8.861 1.477 16.806 5.731 22.903 11.828 6.336 6.335 10.683 14.669 11.99 23.95v.005l.07.521v.005c.067.526.124 1.054.173 1.586v.003l.044.531v.003l.038.532v.003l.03.534v.003l.025.537v.002l.017.539v.001l.01.542.004.544V470.005c0 23.224-19.017 42.241-42.241 42.241H42.241C19.002 512.246 0 493.244 0 470.005V55.281c.071-10.725 4.08-20.658 10.811-28.193 8.059-9.024 19.364-13.969 31.43-14.048zm359.292.168c.356.032.709.068 1.062.108l-1.062-.108z"/><path fill="#E2E0DF" d="M428.577 143.934v326.071c0 16.92-13.899 30.819-30.818 30.819H42.241c-16.919 0-30.818-13.869-30.818-30.819V143.934h417.154z"/><path fill="#FCFBFC" d="M412.42 143.934v303.147c0 16.918-13.901 30.819-30.819 30.819H18.468c-2.097 0-4.175-.216-6.171-.627a30.577 30.577 0 01-.874-7.268V143.934H412.42z"/><path fill="#DB7174" d="M42.241 24.462h355.518c16.95 0 30.818 13.873 30.818 30.819v77.23H11.423v-77.23c0-16.951 13.868-30.819 30.818-30.819z"/><path fill="#D24F54" d="M412.42 132.511H11.423v-77.23c0-8.743 3.688-16.666 9.588-22.288h360.59c16.951 0 30.819 13.874 30.819 30.819v68.699z"/><path fill="#0E1C2A" fill-rule="nonzero" d="M81.174 56.3V8.567a8.568 8.568 0 0117.134 0V56.3c7.606 3.309 12.925 9.368 12.925 19.716 0 10.347-9.622 21.492-21.492 21.492-11.87 0-21.492-11.145-21.492-21.492 0-10.348 5.319-16.407 12.925-19.716zm277.652 0c7.606 3.309 12.925 9.368 12.925 19.716 0 10.347-9.622 21.492-21.492 21.492-11.87 0-21.492-11.145-21.492-21.492 0-10.348 5.319-16.407 12.925-19.716V8.567a8.568 8.568 0 0117.134 0V56.3zm-85.57 0c7.606 3.309 12.925 9.368 12.925 19.716 0 10.347-9.622 21.492-21.492 21.492-11.87 0-21.492-11.145-21.492-21.492 0-10.348 5.319-16.407 12.925-19.716V8.567a8.568 8.568 0 0117.134 0V56.3zm-89.378 0c7.607 3.309 12.926 9.368 12.926 19.716 0 10.347-9.622 21.492-21.492 21.492-11.871 0-21.493-11.145-21.493-21.492 0-10.348 5.32-16.407 12.926-19.716V8.567a8.568 8.568 0 0117.133 0V56.3z"/><path fill="#1C262E" fill-rule="nonzero" d="M97.624 286.968a9.043 9.043 0 010-18.085h244.752a9.043 9.043 0 010 18.085H97.624zm0-65.547a9.043 9.043 0 010-18.085h244.752a9.043 9.043 0 010 18.085H97.624zm117.459 196.147a9.043 9.043 0 110-18.084h120.436a9.043 9.043 0 110 18.084H215.083zm-117.459-65.3a9.042 9.042 0 01-9.042-9.042 9.043 9.043 0 019.042-9.043h237.895a9.043 9.043 0 010 18.085H97.624z"/></svg>